<?xml version="1.0" standalone="no"?>
<!DOCTYPE svg PUBLIC "-//W3C//DTD SVG 20010904//EN"
 "http://www.w3.org/TR/2001/REC-SVG-20010904/DTD/svg10.dtd">
<svg version="1.0" xmlns="http://www.w3.org/2000/svg"
 width="1136.000000pt" height="1136.000000pt" viewBox="0 0 1136.000000 1136.000000"
 preserveAspectRatio="xMidYMid meet">
<metadata>
Created by potrace 1.11, written by Peter Selinger 2001-2013
</metadata>
<g transform="translate(0.000000,1136.000000) scale(0.100000,-0.100000)"
fill="#000000" stroke="none">
<path d="M1510 11259 c-203 -179 -252 -224 -411 -386 -311 -314 -534 -579
-775 -918 -111 -157 -118 -167 -238 -354 l-86 -134 0 -3951 0 -3950 41 -68
c23 -37 44 -66 48 -64 4 3 7 -3 7 -13 0 -18 40 -77 219 -322 61 -83 117 -162
125 -175 8 -13 21 -22 28 -19 7 3 10 0 7 -5 -5 -9 32 -66 70 -106 5 -6 26 -30
45 -55 103 -129 269 -309 471 -511 l226 -228 1347 0 c740 0 1346 2 1346 5 0 3
-21 35 -47 70 -27 35 -77 104 -112 152 -36 48 -81 111 -101 138 -21 28 -77
106 -127 175 -194 272 -277 385 -285 388 -4 2 -8 8 -8 13 0 5 -32 53 -72 107
-71 95 -112 152 -176 242 -18 25 -69 95 -114 155 -44 61 -98 136 -119 167 -22
32 -67 95 -102 142 -34 46 -87 118 -117 161 -30 42 -60 82 -66 88 -6 7 -19 26
-30 42 -10 17 -97 138 -193 270 -160 220 -257 354 -476 660 -44 61 -82 112
-85 115 -3 3 -9 13 -15 22 -10 16 -162 227 -359 497 l-90 123 12 95 c14 109
23 130 57 139 22 5 256 -21 640 -71 61 -8 169 -21 240 -30 72 -9 140 -18 153
-21 23 -5 23 -4 5 23 -23 35 -23 36 -82 108 -103 127 -138 241 -121 400 5 52
66 544 135 1093 68 548 167 1339 219 1757 102 813 116 904 148 969 82 160 227
251 398 249 71 -1 1619 -191 4585 -564 308 -38 612 -76 675 -84 451 -55 552
-68 608 -81 35 -8 69 -11 74 -8 6 4 9 3 5 -2 -3 -5 12 -18 34 -28 36 -18 139
-110 164 -147 58 -85 86 -124 130 -184 51 -69 123 -168 158 -216 9 -13 55 -76
101 -139 46 -63 173 -239 282 -390 109 -151 202 -279 206 -285 12 -15 90 -121
223 -305 65 -91 145 -201 177 -245 32 -44 89 -123 126 -175 61 -85 175 -241
424 -582 43 -59 78 -112 78 -117 0 -6 3 -11 8 -11 4 0 18 -17 32 -37 14 -21
30 -45 37 -53 7 -8 42 -55 78 -104 l65 -90 0 2598 0 2598 -38 57 c-251 371
-430 603 -676 876 -118 131 -389 402 -496 496 -46 41 -100 89 -120 106 l-35
33 -4185 0 -4185 -1 -115 -100z m-702 -10744 c-3 -3 -9 2 -12 12 -6 14 -5 15
5 6 7 -7 10 -15 7 -18z"/>
<path d="M2940 8111 c0 -5 -61 -494 -135 -1088 -74 -593 -182 -1458 -240
-1922 -57 -465 -103 -847 -100 -849 4 -5 275 -39 1225 -157 63 -8 189 -24 280
-35 91 -11 200 -25 242 -31 43 -6 84 -9 93 -5 8 3 15 1 15 -3 0 -5 37 -12 83
-16 45 -3 143 -15 217 -25 285 -39 311 -42 325 -36 8 3 15 2 15 -3 0 -5 37
-12 83 -15 45 -4 178 -21 295 -37 117 -16 224 -26 238 -23 15 4 24 2 24 -5 0
-7 17 -12 43 -11 43 0 317 -33 352 -43 25 -7 149 -21 197 -21 20 -1 40 -4 44
-8 4 -5 26 -8 48 -8 37 0 100 -8 439 -54 59 -8 114 -13 122 -9 9 3 21 0 29 -6
7 -6 27 -11 42 -10 16 0 81 -6 144 -15 225 -32 363 -47 377 -42 7 3 13 1 13
-5 0 -8 16 -9 48 -5 33 5 43 4 32 -3 -11 -8 -5 -11 25 -11 22 0 111 -9 199
-20 87 -11 162 -18 166 -15 5 3 10 1 12 -5 1 -5 37 -10 79 -12 42 -2 74 -7 71
-12 -3 -5 13 -7 36 -3 23 3 42 2 42 -2 0 -7 246 -36 303 -36 15 0 27 -3 27 -7
0 -5 11 -8 24 -8 19 0 26 7 30 27 9 44 45 342 48 403 2 30 5 57 8 60 3 3 20
129 39 280 18 151 35 287 37 302 4 25 63 498 78 623 4 28 66 527 140 1110 73
583 132 1061 131 1063 -1 2 -2601 329 -2875 362 -41 5 -777 97 -1635 204 -858
108 -1563 196 -1567 196 -5 0 -8 -4 -8 -9z m1390 -2015 c308 -21 726 -59 945
-86 401 -49 681 -88 1085 -150 60 -9 317 -54 392 -68 43 -9 51 -7 85 18 118
85 278 90 528 18 205 -59 440 -220 491 -338 20 -46 8 -49 -74 -23 -121 39
-188 31 -327 -36 -136 -66 -220 -85 -335 -77 -137 9 -226 45 -308 125 l-52 52
-117 9 c-314 25 -395 33 -623 56 -547 55 -1182 142 -1575 215 -274 50 -539
103 -635 125 -210 50 -237 56 -339 86 -186 53 -220 75 -135 90 68 11 748 0
994 -16z m-93 -2042 c-3 -3 -12 -4 -19 -1 -8 3 -5 6 6 6 11 1 17 -2 13 -5z
m640 -80 c-3 -3 -12 -4 -19 -1 -8 3 -5 6 6 6 11 1 17 -2 13 -5z m640 -80 c-3
-3 -12 -4 -19 -1 -8 3 -5 6 6 6 11 1 17 -2 13 -5z m640 -80 c-3 -3 -12 -4 -19
-1 -8 3 -5 6 6 6 11 1 17 -2 13 -5z m640 -80 c-3 -3 -12 -4 -19 -1 -8 3 -5 6
6 6 11 1 17 -2 13 -5z m80 -10 c-3 -3 -12 -4 -19 -1 -8 3 -5 6 6 6 11 1 17 -2
13 -5z m560 -70 c-3 -3 -12 -4 -19 -1 -8 3 -5 6 6 6 11 1 17 -2 13 -5z m640
-80 c-3 -3 -12 -4 -19 -1 -8 3 -5 6 6 6 11 1 17 -2 13 -5z"/>
</g>
</svg>
