<svg width="800" height="800" viewBox="0 0 800 800" fill="none" xmlns="http://www.w3.org/2000/svg">
<path d="M400 800C620.914 800 800 620.914 800 400C800 179.086 620.914 0 400 0C179.086 0 0 179.086 0 400C0 620.914 179.086 800 400 800Z" fill="#F2F2F2"/>
<path d="M400 779.355C609.512 779.355 779.355 609.512 779.355 400C779.355 190.488 609.512 20.6453 400 20.6453C190.488 20.6453 20.6453 190.488 20.6453 400C20.6453 609.512 190.488 779.355 400 779.355Z" fill="url(#paint0_linear)"/>
<path fill-rule="evenodd" clip-rule="evenodd" d="M772.811 470.465C741.025 639.403 597.09 768.968 421.407 778.759L169.352 526.705L199.701 517.979L235.739 518.738L222.841 505.84L578.676 276.33L772.811 470.465Z" fill="#DEB697" fill-opacity="0.38"/>
<path fill-rule="evenodd" clip-rule="evenodd" d="M631.975 516.516C631.975 514.487 630.33 512.841 628.301 512.841H171.699C169.67 512.841 168.025 514.487 168.025 516.516V523.864C168.025 525.892 169.67 527.538 171.699 527.538H628.301C630.33 527.538 631.975 525.892 631.975 523.864V516.516Z" fill="#E6E6E6"/>
<path fill-rule="evenodd" clip-rule="evenodd" d="M586.589 294.437C586.589 281.262 575.891 270.564 562.716 270.564H237.284C224.109 270.564 213.411 281.262 213.411 294.437V487.071C213.411 500.247 224.109 510.944 237.284 510.944H562.716C575.891 510.944 586.589 500.247 586.589 487.071V294.437Z" fill="#E5E5E5"/>
<path d="M571.133 288.244H228.867V491.584H571.133V288.244Z" fill="#A37882"/>
<path fill-rule="evenodd" clip-rule="evenodd" d="M476.744 404.292C465.429 404.245 456.262 398.197 456.262 390.755C456.262 383.283 465.498 377.217 476.878 377.217C498.721 377.264 519.333 388.187 519.309 394.623C497.17 388.604 498.841 404.292 476.878 404.292L476.744 404.292Z" fill="#A5A5A5"/>
<path fill-rule="evenodd" clip-rule="evenodd" d="M476.744 404.292C465.429 404.245 456.262 398.197 456.262 390.755C456.262 383.283 465.498 377.217 476.878 377.217C498.721 377.264 519.333 388.187 519.309 394.623C497.17 388.604 498.841 404.292 476.878 404.292L476.744 404.292Z" fill="#A5A5A5"/>
<path fill-rule="evenodd" clip-rule="evenodd" d="M458.648 397.099C437.815 398.317 411.338 399.052 381.974 399.052C315.927 399.052 262.305 393.224 262.305 390.755C262.305 388.286 315.927 382.458 381.974 382.458C411.338 382.458 437.815 383.193 458.648 384.411C458.648 384.411 456.639 387.058 456.639 390.755C456.639 394.452 458.648 397.099 458.648 397.099Z" fill="white"/>
<defs>
<linearGradient id="paint0_linear" x1="100" y1="120" x2="534" y2="674" gradientUnits="userSpaceOnUse">
<stop stop-color="#310F17"/>
<stop offset="0.0001" stop-color="#4A5C7A"/>
<stop offset="0.209945" stop-color="#655F78"/>
<stop offset="0.508287" stop-color="#A37882"/>
<stop offset="0.767956" stop-color="#CC8680"/>
<stop offset="1" stop-color="#DEB697"/>
</linearGradient>
</defs>
</svg>
